<svg xmlns="http://www.w3.org/2000/svg" version="1.1" xmlns:xlink="http://www.w3.org/1999/xlink" xmlns:svgjs="http://svgjs.dev/svgjs" width="1500" height="1500" viewBox="0 0 1500 1500"><rect width="1500" height="1500" fill="#f9f7f4"></rect><g transform="matrix(0.6666666666666666,0,0,0.6666666666666666,249.39393939393938,560.56821714842)"><svg viewBox="0 0 396 150" data-background-color="#f9f7f4" preserveAspectRatio="xMidYMid meet" height="568" width="1500" xmlns="http://www.w3.org/2000/svg" xmlns:xlink="http://www.w3.org/1999/xlink"><g id="tight-bounds" transform="matrix(1,0,0,1,0.2400000000000091,0.038998488742095105)"><svg viewBox="0 0 395.52 149.9220030225158" height="149.9220030225158" width="395.52"><g><svg viewBox="0 0 395.52 149.9220030225158" height="149.9220030225158" width="395.52"><g><svg viewBox="0 0 395.52 149.9220030225158" height="149.9220030225158" width="395.52"><g id="textblocktransform"><svg viewBox="0 0 395.52 149.9220030225158" height="149.9220030225158" width="395.52" id="textblock"><g><svg viewBox="0 0 395.52 84.16587558235133" height="84.16587558235133" width="395.52"><g transform="matrix(1,0,0,1,0,0)"><svg width="395.52" viewBox="1.07 -37.04 178.17000000000002 37.92" height="84.16587558235133" data-palette-color="#ff5a00"><path d="M1.07-14.55L1.07-29.22 7.57-29.25 14.06-29.25 14.6-25.98Q15.16-22.53 15.26-22.07L15.26-22.07 16.11-22.07Q17.02-26.25 19.58-28L19.58-28 20.56-28.56Q20.63-28.71 21.44-29.1L21.44-29.1 21.34-29.08 21.9-29.3Q24.29-30.25 26.03-30.27L26.03-30.27Q26.39-30.27 26.51-30.22L26.51-30.22 27.42-30.22 27.42-16.6Q26.9-16.72 25.81-16.72 24.71-16.72 23.55-16.41 22.39-16.09 21.59-15.59 20.8-15.09 20.21-14.31L20.21-14.31Q18.41-11.89 18.41-7.06L18.41-7.06 18.46-4.49 18.46 0 9.77 0.02 1.1 0.02 1.07-14.55ZM42.48-29.96L42.45-29.93Q43.55-30.25 44.8-30.25 46.04-30.25 47.17-30.15L47.17-30.15 48.19-30.05Q50.61-29.83 51.9-29.49L51.9-29.49 51.9-29.52 52.41-29.3Q57.54-27.71 60.4-24.46L60.4-24.46 60.4-24.49Q61.06-23.71 62.02-22.13 62.99-20.56 62.99-19.95L62.99-19.95 63.18-19.29 63.3-18.58Q63.77-16.94 63.77-15.84 63.77-14.75 63.79-14.16L63.79-14.16 43.67-14.16 43.67-13.35Q43.82-12.79 43.82-12.18 43.82-11.57 43.83-11.22 43.85-10.86 43.89-10.53 43.94-10.21 43.96-10 43.97-9.79 44.06-9.51 44.16-9.23 44.17-9.13 44.19-9.03 44.32-8.74 44.46-8.45 44.54-8.19 44.63-7.93 44.87-7.69L44.87-7.69 44.87-7.71 45.14-7.2Q45.6-6.69 46.41-6.47L46.41-6.47Q47.75-6.76 48.23-7.86 48.7-8.96 49.02-10.6L49.02-10.6Q49.9-10.84 51.51-10.84L51.51-10.84 54.64-10.77 63.64-10.77Q63.35-7.79 61.89-5.3L61.89-5.3 61.91-5.3Q60.64-3.3 57.96-1.86L57.96-1.86Q50.36 0.81 48.22 0.81L48.22 0.81Q47.82 0.81 47.58 0.76L47.58 0.76 47.02 0.76 46.8 0.78 46.58 0.78Q46.38 0.78 46.09 0.73L46.09 0.73Q45.85 0.88 45.51 0.88L45.51 0.88 43.38 0.63Q43.21 0.71 42.69 0.71 42.16 0.71 39.94 0.05L39.94 0.05 39.94 0.07 39.35-0.1 38.77-0.29Q35.1-1.37 32.49-4.06 29.88-6.76 29.15-10.35L29.15-10.35Q29.07-10.79 28.88-11.68 28.68-12.57 28.68-12.89L28.68-12.89 28.68-14.06Q28.68-14.48 28.71-14.7L28.71-14.7 28.71-15.06Q28.71-20.24 31.78-24.01 34.86-27.78 40.04-29.32L40.04-29.32 40.62-29.49Q41.92-29.71 42.48-29.96L42.48-29.96ZM46.58-17.38L49.75-17.38 50.27-17.7Q49.85-20.34 49.48-21.08 49.12-21.83 48.78-22.36L48.78-22.36Q48.14-23.39 47.1-23.39 46.07-23.39 45.33-22.36L45.33-22.36Q44.04-20.56 43.7-17.29L43.7-17.29Q45.26-17.38 46.58-17.38L46.58-17.38ZM66.18-29.22L72.68-29.2 79.22-29.22Q79.34-28.71 79.66-27.61 79.98-26.51 80.27-25.42L80.27-25.42 80.73-23.58Q81.71-26.05 81.93-26.32L81.93-26.32 82.32-26.81Q84.79-30.27 89.89-30.27L89.89-30.27Q92.3-30.27 94.49-28.82 96.67-27.37 97.9-25.04 99.12-22.71 99.12-20.12L99.12-20.12Q99.12-19.82 99.04-19.65L99.04-19.65 99.04-4.64 99.07 0.02 84.79 0.02 84.74-12.18 84.83-14.67Q84.83-18.41 82.86-18.41L82.86-18.41Q80.73-18.41 80.73-14.87L80.73-14.87Q80.73-14.09 80.76-13.79L80.76-13.79 80.76-13.43 80.78-13.01 80.78 0 73.51 0.02 66.21 0.02 66.18-14.62 66.18-29.22ZM119.87-22.02L119.87-12.16 119.84-11.79Q119.84-10.94 119.9-10.53 119.96-10.13 120.4-9.58 120.84-9.03 123.26-9.03L123.26-9.03 123.92-9.01Q124.28-9.01 124.58-9.08L124.58-9.08 124.6 0.02 111.25 0.02 110.42 0.07 110.15 0.07Q109.25 0.07 108.17-0.51 107.1-1.1 106.57-1.55 106.05-2 105.68-2.71L105.68-2.71Q105-4.03 104.86-5.31 104.73-6.59 104.73-8.5L104.73-8.5 104.73-22.02 101.85-22.02 101.82-25.44 101.82-28.93 104.63-28.93 104.63-37.01 112.18-37.01 119.72-37.04 119.74-28.98 123.82-28.98 123.85-25.49 123.85-22.02 119.87-22.02ZM128.48 0.07L128.55-2.61Q128.55-7.57 128.82-9.5L128.82-9.5Q128.82-20.12 129.12-30.91L129.12-30.91Q129.04-32.45 129.04-34.01L129.04-34.01 129.04-34.81Q128.95-35.57 128.95-36.16 128.95-36.74 129.07-36.91L129.07-36.91Q134.29-36.6 138.22-36.6 142.15-36.6 143.62-36.74L143.62-36.74Q143.67-36.67 143.69-36.33L143.69-36.33 143.52-36.33 143.52-27.49 143.69-7.62Q143.69-7.4 143.76-7.25L143.76-7.25 143.76-7.2Q143.84-7.06 143.84-6.88L143.84-6.88 144.03 0.22Q143.91 0.49 143.59 0.63L143.59 0.63 142.76 0.63 129.09 0.85Q128.85 0.73 128.46 0.49L128.46 0.49 128.48 0.07ZM179.21-29.66L179.24-27.71Q179.24-26.9 179.06-26.9L179.06-26.9Q179.06-26.9 170.23-26.98L170.23-26.98Q170.18-24.61 170.18-19.58 170.18-14.55 170.2-12.6L170.2-12.6 170.3 0.34Q170.18 0.68 169.81 0.71L169.81 0.71 164.66 0.63 164.64 0.66 163.02 0.63 158.56 0.63Q156.75 0.63 155.85 0.66L155.85 0.66 155.43 0.29Q155.41 0.27 155.11-0.1L155.11-0.1Q155.11-2.25 155.29-9.64L155.29-9.64 155.55-22.63 155.51-23.24Q155.33-25.66 155.18-26.11 155.02-26.56 154.55-26.6 154.09-26.64 153.87-26.64L153.87-26.64 152.89-26.59 146.84-26.68Q146.52-27.32 146.52-29.54L146.52-29.54 146.57-31.69 146.57-32.35Q146.55-36.25 146.5-36.52L146.5-36.52Q146.55-36.52 146.69-36.47L146.69-36.47 177.77-36.74Q178.72-36.74 178.97-36.61 179.21-36.47 179.21-36.11L179.21-36.11 179.21-29.66Z" opacity="1" transform="matrix(1,0,0,1,0,0)" fill="#ff5a00" class="wordmark-text-0" data-fill-palette-color="primary" id="text-0"></path></svg></g></svg></g><g transform="matrix(1,0,0,1,0,104.0354188263305)"><svg viewBox="0 0 266.77824 45.88658419618529" height="45.88658419618529" width="266.77824"><g transform="matrix(1,0,0,1,0,0)"><svg width="266.77824" viewBox="1.25 -39.65 293.56 50.5" height="45.88658419618529" data-palette-color="#ff5a00"><path d="M19.75-6.4Q19.75-5.1 20.1-4.48 20.45-3.85 21.25-3.45L21.25-3.45 20 0.65Q17.95 0.4 16.73-0.45 15.5-1.3 14.9-3.05L14.9-3.05Q12.6 0.75 8.45 0.75L8.45 0.75Q5.15 0.75 3.2-1.48 1.25-3.7 1.25-7.4L1.25-7.4Q1.25-11.7 3.93-13.95 6.6-16.2 11.7-16.2L11.7-16.2 13.75-16.2 13.75-18.05Q13.75-20.55 12.88-21.58 12-22.6 10.05-22.6L10.05-22.6Q7.7-22.6 4.2-21.3L4.2-21.3 2.8-25.3Q4.8-26.2 6.95-26.68 9.1-27.15 11.05-27.15L11.05-27.15Q19.75-27.15 19.75-18.35L19.75-18.35 19.75-6.4ZM10.1-3.7Q12.5-3.7 13.75-7L13.75-7 13.75-12.55 12.3-12.55Q9.75-12.55 8.58-11.4 7.4-10.25 7.4-7.85L7.4-7.85Q7.4-5.8 8.1-4.75 8.8-3.7 10.1-3.7L10.1-3.7ZM37.9-27.15Q40.75-27.15 42.4-25.1 44.05-23.05 44.05-19.6L44.05-19.6 44.05 0 37.9 0 37.9-18.9Q37.9-20.8 37.37-21.63 36.85-22.45 35.85-22.45L35.85-22.45Q33.75-22.45 31.7-18.5L31.7-18.5 31.7 0 25.55 0 25.55-26.45 30.9-26.45 31.35-23Q32.7-25.1 34.22-26.13 35.75-27.15 37.9-27.15L37.9-27.15ZM68.25-26.45L61.25 0.1Q59.95 4.9 57.05 7.65 54.15 10.4 49.3 10.85L49.3 10.85 48.6 6.5Q51.75 5.85 53.32 4.42 54.9 3 55.8 0L55.8 0 53.5 0 46.8-26.45 53.05-26.45 57.45-4.1 62.15-26.45 68.25-26.45ZM90.49-27.15Q92.64-27.15 94.39-26.43 96.14-25.7 97.74-24.15L97.74-24.15 95.09-20.65Q93.99-21.55 93.02-21.98 92.04-22.4 90.89-22.4L90.89-22.4Q88.64-22.4 87.49-20.28 86.34-18.15 86.34-13.1L86.34-13.1Q86.34-8.2 87.52-6.2 88.69-4.2 90.89-4.2L90.89-4.2Q91.99-4.2 92.89-4.6 93.79-5 94.99-5.85L94.99-5.85 97.74-2.3Q94.54 0.75 90.59 0.75L90.59 0.75Q85.49 0.75 82.67-2.73 79.84-6.2 79.84-13L79.84-13Q79.84-17.4 81.14-20.6 82.44-23.8 84.87-25.48 87.29-27.15 90.49-27.15L90.49-27.15ZM117.69-6.4Q117.69-5.1 118.04-4.48 118.39-3.85 119.19-3.45L119.19-3.45 117.94 0.65Q115.89 0.4 114.66-0.45 113.44-1.3 112.84-3.05L112.84-3.05Q110.54 0.75 106.39 0.75L106.39 0.75Q103.09 0.75 101.14-1.48 99.19-3.7 99.19-7.4L99.19-7.4Q99.19-11.7 101.86-13.95 104.54-16.2 109.64-16.2L109.64-16.2 111.69-16.2 111.69-18.05Q111.69-20.55 110.81-21.58 109.94-22.6 107.99-22.6L107.99-22.6Q105.64-22.6 102.14-21.3L102.14-21.3 100.74-25.3Q102.74-26.2 104.89-26.68 107.04-27.15 108.99-27.15L108.99-27.15Q117.69-27.15 117.69-18.35L117.69-18.35 117.69-6.4ZM108.04-3.7Q110.44-3.7 111.69-7L111.69-7 111.69-12.55 110.24-12.55Q107.69-12.55 106.51-11.4 105.34-10.25 105.34-7.85L105.34-7.85Q105.34-5.8 106.04-4.75 106.74-3.7 108.04-3.7L108.04-3.7ZM135.14-27.1Q136.29-27.1 137.19-26.75L137.19-26.75 136.19-20.85Q135.19-21.1 134.34-21.1L134.34-21.1Q132.44-21.1 131.34-19.45 130.24-17.8 129.64-14.55L129.64-14.55 129.64 0 123.49 0 123.49-26.45 128.84-26.45 129.29-21.85Q131.14-27.1 135.14-27.1L135.14-27.1ZM168.53-26.45L161.53 0.1Q160.23 4.9 157.33 7.65 154.43 10.4 149.58 10.85L149.58 10.85 148.88 6.5Q152.03 5.85 153.61 4.42 155.18 3 156.08 0L156.08 0 153.78 0 147.08-26.45 153.33-26.45 157.73-4.1 162.43-26.45 168.53-26.45ZM180.83-27.15Q185.83-27.15 188.6-23.65 191.38-20.15 191.38-13.25L191.38-13.25Q191.38-6.65 188.58-2.95 185.78 0.75 180.83 0.75L180.83 0.75Q175.88 0.75 173.08-2.88 170.28-6.5 170.28-13.25L170.28-13.25Q170.28-19.95 173.08-23.55 175.88-27.15 180.83-27.15L180.83-27.15ZM180.83-22.5Q178.68-22.5 177.68-20.38 176.68-18.25 176.68-13.25L176.68-13.25Q176.68-8.2 177.68-6.08 178.68-3.95 180.83-3.95L180.83-3.95Q182.98-3.95 183.98-6.08 184.98-8.2 184.98-13.25L184.98-13.25Q184.98-18.3 183.98-20.4 182.98-22.5 180.83-22.5L180.83-22.5ZM214.08-26.45L214.08 0 208.73 0 208.43-3.35Q207.18-1.3 205.63-0.28 204.08 0.75 202.03 0.75L202.03 0.75Q199.13 0.75 197.45-1.3 195.78-3.35 195.78-6.65L195.78-6.65 195.78-26.45 201.93-26.45 201.93-7Q201.93-3.9 204.03-3.9L204.03-3.9Q205.23-3.9 206.18-4.83 207.13-5.75 207.93-7.45L207.93-7.45 207.93-26.45 214.08-26.45ZM242.57-37.7L248.72-37.05 248.72 0 243.27 0 242.97-3.05Q240.62 0.75 236.92 0.75L236.92 0.75Q232.82 0.75 230.65-2.93 228.47-6.6 228.47-13.2L228.47-13.2Q228.47-17.4 229.6-20.58 230.72-23.75 232.72-25.45 234.72-27.15 237.32-27.15L237.32-27.15Q240.52-27.15 242.57-24.5L242.57-24.5 242.57-37.7ZM238.67-3.9Q239.82-3.9 240.75-4.7 241.67-5.5 242.57-7L242.57-7 242.57-19.85Q240.97-22.55 238.92-22.55L238.92-22.55Q234.87-22.55 234.87-13.25L234.87-13.25Q234.87-8.2 235.87-6.05 236.87-3.9 238.67-3.9L238.67-3.9ZM254.42-26.45L260.57-26.45 260.57 0 254.42 0 254.42-26.45ZM257.47-39.65Q259.12-39.65 260.14-38.6 261.17-37.55 261.17-35.9L261.17-35.9Q261.17-34.3 260.14-33.25 259.12-32.2 257.47-32.2L257.47-32.2Q255.82-32.2 254.79-33.25 253.77-34.3 253.77-35.9L253.77-35.9Q253.77-37.55 254.79-38.6 255.82-39.65 257.47-39.65L257.47-39.65ZM284.22-29.85L285.77-25.1Q284.72-24.6 283.24-24.4 281.77-24.2 279.57-24.2L279.57-24.2Q281.67-23.2 282.69-21.53 283.72-19.85 283.72-17.4L283.72-17.4Q283.72-13.4 281.27-10.95 278.82-8.5 274.62-8.5L274.62-8.5Q273.37-8.5 272.07-8.9L272.07-8.9Q271.17-8.15 271.17-6.85L271.17-6.85Q271.17-5.85 271.72-5.35 272.27-4.85 273.77-4.85L273.77-4.85 276.57-4.85Q280.57-4.85 282.92-2.78 285.27-0.7 285.27 2.5L285.27 2.5Q285.27 6.3 282.34 8.58 279.42 10.85 274.02 10.85L274.02 10.85Q268.32 10.85 266.04 8.75 263.77 6.65 263.77 2.6L263.77 2.6 269.22 2.6Q269.22 4.75 270.22 5.65 271.22 6.55 274.07 6.55L274.07 6.55Q276.82 6.55 277.97 5.6 279.12 4.65 279.12 2.9L279.12 2.9Q279.12 1.2 278.17 0.4 277.22-0.4 275.22-0.4L275.22-0.4 273.32-0.4Q269.52-0.4 267.77-1.75 266.02-3.1 266.02-5.45L266.02-5.45Q266.02-6.8 266.74-8.03 267.47-9.25 268.72-10.2L268.72-10.2Q266.67-11.5 265.72-13.3 264.77-15.1 264.77-17.7L264.77-17.7Q264.77-22.05 267.37-24.58 269.97-27.1 274.37-27.1L274.37-27.1Q277.62-27.1 279.74-27.8 281.87-28.5 284.22-29.85L284.22-29.85ZM274.37-23Q272.62-23 271.72-21.75 270.82-20.5 270.82-17.8L270.82-17.8Q270.82-15.25 271.72-13.88 272.62-12.5 274.32-12.5L274.32-12.5Q276.07-12.5 276.92-13.73 277.77-14.95 277.77-17.85L277.77-17.85Q277.77-20.55 276.94-21.78 276.12-23 274.37-23L274.37-23ZM291.01-7.05Q292.71-7.05 293.76-5.9 294.81-4.75 294.81-3.15L294.81-3.15Q294.81-1.55 293.76-0.4 292.71 0.75 291.01 0.75L291.01 0.75Q289.36 0.75 288.29-0.4 287.21-1.55 287.21-3.15L287.21-3.15Q287.21-4.75 288.29-5.9 289.36-7.05 291.01-7.05L291.01-7.05Z" opacity="1" transform="matrix(1,0,0,1,0,0)" fill="#ff5a00" class="slogan-text-1" data-fill-palette-color="secondary" id="text-1"></path></svg></g></svg></g></svg></g></svg></g></svg></g><defs></defs></svg><rect width="395.52" height="149.9220030225158" fill="none" stroke="none" visibility="hidden"></rect></g></svg></g></svg>